Patient4_TMGait_0pt3_03_left_29_EMG.mot
version=1
nRows=36
nColumns=33
inDegrees=no
endheader
time	1LAddLong	2LGlutMax	3LGlutMed	4LIliopsoas	5LSemiMemb	6LBicFemLong	7LRecFem	8LVastMed	9LVastLat	10LGasMed	11LTibAnt	12lTibPost	13LPeroneusLong	14LSol	15LExtDigLong	16LFlexDigLong	17RAddLong	18RGlutMax	19RGlutMed	20RIliopsoas	21RSemiMemb	22RBicFemLong	23RRecFem	24RVastMed	25RVastLat	26RGasMed	27RTibAnt	28RTibPost	29RPeroneusLong	30RSol	31RExtDigLong	32RFlexDigLong
51.967	0.018311	0.04776	0.01236	0.00885	0.093231	0.040741	0.056915	-0.003052	0.030212	-0.017395	0.028687	-0.003662	-0.12863	0.020142	0.079346	0.003204	-0.013428	-0.20721	0.054779	-0.071259	-0.014648	-0.003052	-0.018616	0.001984	0.02533	-0.000305	0.014648	-0.091553	-0.004883	-0.69946	-0.00061	-0.019989
51.968	0.010681	0.055389	-0.000153	0.001678	0.067291	0.023041	0.068817	-0.003204	0.016479	-0.012207	0.025177	-0.002899	0.39108	0.01358	0.011902	0.008392	-0.004272	-0.22827	-0.005493	-0.056	-0.00885	-0.02655	-0.020142	-0.002289	0.028229	-0.006714	-0.025482	-0.023346	-0.33707	-0.50736	-0.002747	-0.018616
51.969	0.005646	0.026398	-0.059662	0.001831	0.025482	0.079803	0.042267	0.007935	0.006561	-0.012512	0.000305	-0.001526	0.14297	-0.003662	0.024109	-0.001678	0.016174	-0.20905	-0.061493	-0.034943	-0.009308	-0.006866	-0.007477	-0.030823	0.036316	-0.068817	-0.039368	-0.057373	-0.4422	-0.19257	0.001221	-0.019684
51.97	-0.007477	0.01297	-0.049438	0.000458	0.013885	0.20035	0.06424	0.016785	0.019989	0.005951	-0.007477	-0.002747	-0.99548	0.018158	0.032349	0.007172	0.014954	-0.21835	-0.12497	-0.00946	-0.004883	0.021515	-0.018768	-0.036926	0.007019	-0.036621	0.006104	0.020905	-0.44571	-0.040131	-0.000153	-0.000916
51.971	-0.032501	-0.010681	-0.049591	0.013428	-0.007477	0.24231	0.076294	0.017395	0.014648	0.05661	-0.00946	-0.004883	-0.44037	-0.026093	-0.034943	0.005798	0.010834	-0.19623	-0.18433	0.025177	-0.036011	0.061493	-0.003662	-0.003967	0.016785	-0.03006	0.053253	0.071106	-0.42801	-0.35095	-0.001221	-0.014496
51.972	-0.041656	-0.041046	-0.013733	0.0177	-0.075989	0.20279	0.047302	0.014038	-0.005951	0.038147	-0.012665	0.002747	0.28824	-0.12344	-0.045776	-0.005951	-0.003357	-0.2536	-0.10056	0.034637	-0.054626	0.040588	-0.009766	-0.006256	0.023651	-0.032196	0.10193	-0.35049	-0.64011	-0.46753	0.005035	-0.019226
51.973	-0.053406	-0.046539	-0.010376	0.029755	-0.15503	0.14786	0.054932	0.047455	-0.063477	0.016785	-0.010529	0	0.82123	-0.04837	-0.003052	-0.002289	0.002289	-0.23529	-0.057678	-0.049133	0.079956	0.029449	0.043335	0.007172	0.020905	-0.012817	0.034027	-0.088043	-0.4126	-0.64926	-0.001221	-0.026855
51.974	-0.053558	-0.033264	0.038147	-0.001678	-0.22614	0.029907	0.000916	-0.059052	-0.039063	-0.002441	-0.005341	-0.006561	0.56305	0.003052	0.018921	0.008392	0.000763	-0.24155	0.24536	-0.15762	0.040588	0.000916	0.013275	0.041199	0.027771	-0.0354	0.025635	0.26443	-0.36545	-0.66132	0.000153	-0.016479
51.975	-0.025482	-0.045776	0.18188	-0.004578	-0.18448	-0.026093	-0.016632	0.008698	0.00061	-0.015564	0.011749	0	0.015411	0.036926	0.033417	0.010376	0.006409	-0.19104	0.18249	-0.23041	-0.014343	0.008545	-0.024261	0.000153	0.028076	-0.037537	0.029755	0.41412	-0.035248	-0.13306	-0.003357	-0.013123
51.976	0.010223	-0.060577	0.093994	-0.028229	0.051422	0.10468	-0.022125	0.012665	0.080872	-0.026855	0.003815	-0.001831	-0.35187	0.021057	0.002899	0.00061	0.012054	-0.1648	-0.079498	-0.25223	-0.031433	0.021362	-0.029297	-0.011597	0.036469	-0.043335	0.015717	0.1416	0.27573	0.53177	-0.001221	-0.008087
51.977	0.027466	-0.076141	0.046844	-0.023956	0.10544	0.005798	-0.041046	-0.001678	0.15808	-0.008545	0.014648	-0.002594	-0.44495	-0.065918	-0.019684	0.010986	0.019073	-0.22018	-0.21332	-0.29221	-0.076447	0.033264	-0.015411	-0.016022	0.036774	-0.036316	-0.010681	0.029144	0.93796	0.62042	-0.002594	-0.016327
51.978	0.023956	-0.00885	0.03418	0.00061	0.17395	-0.16388	-0.027008	0.004272	0.16159	-0.026703	0.008392	-0.001221	-0.40268	-0.07843	0.012665	0.002899	0.006104	-0.19928	-0.18158	-0.10529	-0.10132	0.04837	0.021057	-0.0383	0.023193	-0.016479	-0.009918	0.002441	0.75302	1.2857	-0.003662	-0.004883
51.979	0.029907	0.048523	0.021973	0.00946	0.13168	-0.081329	-0.024567	0.005341	0.10864	-0.016174	0.001984	-0.003815	-0.09201	-0.074158	-0.006714	0.015106	0.010071	-0.15976	-0.14084	0.26321	-0.056763	0.046387	0.023499	0.002899	0.018311	0.00351	-0.001678	-0.020294	0.32089	1.5372	-0.001526	-0.003967
51.98	0.030975	0.018158	0.053406	0.008392	0.051727	-0.042725	-0.032959	0.000763	0.048218	-0.031128	-0.004425	0.004883	-0.045166	-0.099335	-0.012207	0.011902	0.008698	-0.16403	-0.081329	0.40619	0.084534	0.070648	0.016937	-0.047913	0.030823	0.005798	0.009613	-0.029907	0.054321	0.9491	-0.003662	-0.019836
51.981	0.041962	0.028381	0.076141	0.01297	0.019226	-0.11414	0.003967	-0.003662	0.13062	-0.074615	-0.004578	0.001373	-0.028229	-0.054626	0.029602	0.002289	0.010071	-0.20737	-0.10559	0.31006	0.041351	0.046997	0.017548	-0.014801	0.027313	0.013885	-0.005951	-0.041046	-0.005951	0.3746	0.001678	-0.016174
51.982	0.028076	0.032043	0.030823	0.011597	0.025482	-0.25742	-0.009003	-0.011749	0.21576	-0.078125	-0.001831	0.00061	-0.002899	-0.030365	0.021667	0.004883	0.007935	-0.22995	-0.041656	0.19943	-0.063782	0.042877	0.001984	-0.000305	0.043488	0.024109	-0.006409	-0.033569	-0.037842	-0.086365	-0.006256	-0.006104
51.983	0.027161	0.072327	-0.007172	0.011139	0.089874	-0.1445	0.018463	-0.006104	0.13428	-0.091858	0.001068	0.003052	0.094757	0.009003	0.029297	-0.003052	0.006104	-0.19592	-0.10666	0.17288	-0.09079	0.034943	0.032043	-0.028534	0.013885	0.014648	-0.019684	-0.03479	0.1004	-0.21362	0.000153	-0.0177
51.984	0.015259	0.067444	0.021973	0.005798	0.025177	-0.008087	0.037384	0.005188	-0.020599	-0.036316	0.007172	0.002289	-0.18036	0.028381	0.051117	0.004578	0.002899	-0.18723	-0.096283	0.058594	0.068665	0.002747	0.043945	-0.035248	0.024414	0.020599	-0.017548	-0.017548	0.1268	-0.28153	-0.001068	-0.013275
51.985	0.002441	0.020752	-0.035553	0.002136	-0.028992	0.039215	0.098572	0.015106	-0.16113	0.097961	0.003052	-0.000763	0.010223	0.052948	0.022125	-0.001221	0.007324	-0.12848	-0.060883	0.009308	0.13504	-0.011139	0.027466	-0.036163	0.025635	0.013885	0.002594	-0.061646	0.1651	-0.18173	0.001221	-0.00885
51.986	-0.000153	-0.003357	-0.012817	0.006409	-0.018005	0.040588	0.07431	0.012817	-0.19714	0.19653	-0.009766	0.009613	0.085602	0.05188	-0.029602	0.008087	0.007019	-0.18417	0.14252	0.00946	0.057068	0.007935	0.032959	-0.03006	0.028534	0.015717	0.012817	-0.022888	0.057068	-0.1207	-0.001526	-0.015411
51.987	0.000763	-0.090179	-0.033569	0.009003	0.066833	0.065308	0.080414	0.003967	-0.14297	0.23575	-0.008087	0.001373	0.006561	0.089569	-0.022888	-0.002289	0.006104	-0.23941	0.22156	0.06546	0.026398	0.014191	0.014343	-0.050354	0.02594	0.006714	0.032349	-0.047913	0.11887	0.10361	-0.002441	-0.015564
51.988	-0.005341	-0.16129	-0.001221	0.004425	0.080261	0.09491	0.076904	0.01297	-0.059052	0.24628	-0.014343	-0.000153	0.015411	-0.036316	0.024872	0.000763	0.008087	-0.19012	0.050812	0.066681	-0.017548	-0.007477	0.007019	-0.018463	0.024414	0.01236	0.031128	-0.054932	0.33783	0.11017	-0.002441	-0.012817
51.989	-0.014191	-0.23178	0.043488	-0.015106	0.044708	0.040131	0.089722	0.012512	-0.046234	0.15015	0.006561	0.011292	-0.068665	-0.2211	0.022736	0	0.00946	-0.10071	-0.070953	-0.001221	-0.021973	0.002899	-0.041809	-0.007782	0.028534	0.026855	0.024261	-0.047607	0.25665	0.011139	-0.003357	-0.011292
51.99	0.001984	-0.27054	0.011597	0	-0.006256	-0.021973	0.053253	0.007172	-0.051727	-0.021362	0.014038	0.004883	-0.094452	-0.090179	0.031281	-0.007477	0.004883	-0.10605	-0.089417	-0.045776	-0.021973	-0.002747	0.018463	-0.024109	0.035248	0.025482	0.024719	-0.019684	0.025635	-0.049286	-0.003357	-0.00824
51.991	0.005341	-0.2388	-0.042572	0.002136	-0.028839	-0.076141	0.042267	0.005951	-0.031738	0.014038	0.009308	0.002594	-0.11047	-0.005798	-0.001221	-0.001068	0.005188	-0.080109	-0.11261	-0.054016	0.015564	-0.017242	-0.039368	-0.0177	0.023956	0.010376	0.019226	0.06134	-0.046539	-0.093689	-0.002899	-0.010071
51.992	0.007935	-0.22263	-0.059509	0.021362	-0.072784	-0.082397	0.062866	0.005798	-0.038757	0.098724	0.011902	0.010071	0.015411	-0.13779	0.000153	0.001831	0.000458	-0.094299	-0.068207	-0.069885	0.059662	-0.052185	-0.013733	-0.007172	0.021667	0.003204	0.035706	-0.043793	-0.354	0.006714	-0.002899	-0.014648
51.993	-0.002136	-0.10773	-0.041351	0.023041	-0.053711	-0.090942	0.085144	0.006256	-0.037842	0.20416	0.002441	0.019531	0.16068	-0.37415	0.013428	-0.012817	0.015259	-0.13351	-0.10941	-0.032806	0.00946	-0.019836	-0.010986	-0.016327	0.025482	0.001221	0.058746	-0.50964	-0.34836	-0.096436	-0.00061	-0.022583
51.994	-0.004425	-0.12558	-0.007019	0.007019	0.026093	-0.028381	0.073395	0.016937	0.085144	0.30899	-0.000458	0.004883	0.25452	-0.36529	0.018005	0.003357	-0.00061	-0.037842	-0.24887	-0.070801	-0.13062	0.029907	-0.021973	0.014801	0.02655	-0.024414	0.055542	-0.12634	-0.2095	-0.89615	0.000153	-0.027771
51.995	-0.015717	-0.10803	0.052032	0.009766	0.038605	0.046539	0.061798	0.018768	0.16113	0.056763	-0.011597	-0.001221	0.25299	-0.1709	0.028076	-0.005188	0.015106	0.010529	-0.071869	-0.11002	-0.099335	0.031128	-0.00412	-0.001526	0.036469	-0.009308	0.001831	0.3186	-0.21393	-1.5941	-0.006561	-0.028839
51.996	-0.015259	-0.081329	0.072327	0.010834	-0.014038	0.04715	0.047302	0.012665	0.18494	-0.095673	0.003357	0.010223	0.084991	0.046082	0.014954	-0.001373	0.014496	-0.067749	0.29312	-0.17899	-0.013428	0.024872	-0.007935	-0.03067	0.030365	-0.031128	0.019836	0.14755	0.12177	-1.4101	-0.001526	-0.034027
51.997	-0.017853	-0.10819	-0.042725	0.013733	0.007477	0.079803	0.088806	0.008392	0.16052	-0.18005	0.01358	0.00946	0.15503	0.121	0.03067	-0.004272	0.028687	-0.033722	0.28549	-0.11154	-0.00351	0.076599	-0.025787	0.027466	0.038757	-0.030975	0.027313	-0.003815	0.43366	-0.17807	-0.00061	-0.022736
51.998	-0.014038	-0.061951	-0.019989	0.005341	0.037231	0.09079	0.087891	0.008392	0.13992	-0.21011	0.019226	0.016022	0.25024	0.14816	0.049591	0.003815	0.026855	-0.015564	0.000305	-0.064697	0.023804	0.13092	-0.029449	-0.045013	0.008545	-0.037537	0.035553	0.2269	0.50339	0.46081	-0.003357	-0.013123
51.999	0.00061	-0.024567	0.024567	0.000916	-0.012207	-0.041809	0.046234	0.007477	0.044098	-0.20676	0.011292	0.019073	0.01297	0.21469	0.090027	0.000305	0.028229	-0.027466	-0.31616	0.013275	0.043793	0.11902	-0.040436	-0.011292	0.013123	-0.01709	-0.00473	0.17349	0.34958	0.73715	-0.000305	-0.012817
52	0.013275	-0.02594	0.016785	0.010834	-0.023499	-0.069122	-0.10834	0.017395	-0.22461	-0.10956	0.051422	0.010071	-0.33112	0.18814	0.072784	-0.002136	0.02182	0.02533	-0.29205	0.093689	0.016632	0.051117	-0.020447	-0.077515	0.029755	-0.016174	-0.043488	-0.033569	0.081177	0.73761	-0.002441	-0.024567
52.001	0.016174	0.008392	-0.010071	-0.002136	-0.039978	-0.01358	-0.084076	0.025787	-0.38391	-0.077515	0.031586	0.006104	-0.12756	0.055389	-0.054321	0.00061	0.009766	0.015411	-0.22308	0.18753	-0.032501	0.007629	-0.016479	-0.028534	0.034332	-0.046844	0.002594	-0.10239	-0.20905	0.45715	-0.002441	-0.018005
52.002	0.020752	0.009766	-0.001831	0.003204	-0.06958	0.042725	-0.092163	0.016785	-0.2652	-0.091248	-0.018616	-0.002136	-0.19287	-0.032654	-0.078278	-0.005188	-0.011139	-0.018921	0.11627	0.09964	-0.007324	-0.021515	0.001831	-0.060577	0.023499	-0.058289	0.013733	0.053101	0.046692	0.64209	-0.001221	-0.012817
